<svg version="1.1" id="Layer_1" xmlns="http://www.w3.org/2000/svg" xmlns:xlink="http://www.w3.org/1999/xlink" x="0px" y="0px"
	 width="100%" viewBox="0 0 1536 1024" enable-background="new 0 0 1536 1024" xml:space="preserve">
<path fill="#000000" opacity="1.000000" stroke="none" 
	d="
M1422.000000,1025.000000 
	C948.000000,1025.000000 474.500000,1025.000000 1.000000,1025.000000 
	C1.000000,683.666687 1.000000,342.333344 1.000000,1.000000 
	C513.000000,1.000000 1025.000000,1.000000 1537.000000,1.000000 
	C1537.000000,342.333344 1537.000000,683.666687 1537.000000,1025.000000 
	C1498.833374,1025.000000 1460.666626,1025.000000 1422.000000,1025.000000 
M779.843811,847.082825 
	C814.146851,847.082825 848.449890,847.082825 882.752930,847.082825 
	C882.751892,846.667297 882.750916,846.251709 882.749878,845.836182 
	C861.951599,845.836182 841.153320,845.809082 820.355164,845.845764 
	C806.537842,845.870178 792.720642,845.985779 777.979797,846.126953 
	C769.499146,846.120728 761.018494,846.111511 752.537842,846.108765 
	C709.989075,846.094910 667.440369,846.108337 624.891602,846.059082 
	C603.944702,846.034851 582.997925,845.895691 562.824158,845.552246 
	C574.796753,845.378174 586.769287,845.056335 598.741943,845.053467 
	C692.153870,845.031067 785.566040,844.992615 878.977478,845.218079 
	C887.665649,845.239075 896.349548,847.052368 903.907104,847.455688 
	C903.949158,846.506165 903.991272,845.556702 904.033325,844.607178 
	C908.547546,844.979553 913.087463,845.171753 917.563354,845.812134 
	C919.379639,846.072021 921.054199,847.989014 922.796753,847.994324 
	C941.740112,848.052307 960.684204,847.783020 979.627991,847.789917 
	C1027.551270,847.807434 1075.474609,847.931458 1123.397949,847.955688 
	C1125.253052,847.956604 1127.108521,847.367493 1129.567139,846.647339 
	C1134.379150,844.862915 1139.494629,843.628662 1143.939331,841.178101 
	C1152.840332,836.270325 1157.098389,827.657288 1159.643799,818.305359 
	C1167.605347,789.052917 1175.405273,759.755859 1183.108887,730.434326 
	C1186.669922,716.880615 1189.794800,703.155701 1197.535400,691.215576 
	C1202.380737,683.741516 1206.665527,675.732178 1215.049072,671.141357 
	C1217.989868,669.530945 1220.255737,666.647827 1222.735474,664.248474 
	C1224.726074,662.322266 1226.210938,659.501831 1228.546509,658.366272 
	C1240.647339,652.482849 1252.821533,646.707275 1265.230957,641.518005 
	C1272.286377,638.567749 1276.777100,634.412048 1278.307251,626.638306 
	C1284.227783,596.560913 1290.512451,566.555420 1296.535278,536.497986 
	C1298.236084,528.010864 1299.941772,519.484070 1300.858398,510.891602 
	C1301.876465,501.348907 1299.078491,498.243439 1289.678101,496.665283 
	C1287.879028,496.363220 1286.023682,496.056671 1284.220947,496.171112 
	C1273.921021,496.824799 1263.619141,497.488525 1253.336426,498.365723 
	C1228.781738,500.460571 1204.241821,502.730530 1179.685669,504.808868 
	C1172.749634,505.395935 1170.760986,503.200378 1171.861938,496.442749 
	C1174.272949,481.645447 1176.760742,466.860046 1179.321655,452.087921 
	C1181.753662,438.059326 1181.786621,437.926605 1195.940186,435.400452 
	C1210.714844,432.763458 1225.669800,432.042603 1237.975342,442.255585 
	C1260.850830,461.241089 1297.997925,459.607849 1321.094482,444.614197 
	C1322.616211,443.626312 1323.980103,442.395050 1325.417480,441.277008 
	C1323.082642,440.118256 1321.281006,440.083893 1319.494507,439.901855 
	C1309.513916,438.884766 1299.439941,437.855377 1290.997314,431.834595 
	C1288.910522,430.346436 1287.757446,427.137451 1287.000366,424.484131 
	C1286.810425,423.818542 1289.749023,422.141724 1291.359985,421.100098 
	C1300.714111,415.051636 1310.178955,409.168823 1319.406982,402.935028 
	C1321.093384,401.795776 1321.861694,399.297394 1323.053711,397.426422 
	C1322.817993,396.998199 1322.582275,396.569977 1322.346558,396.141754 
	C1319.678467,396.450714 1317.000122,396.689178 1314.344238,397.079834 
	C1295.442871,399.860107 1277.878052,398.044434 1263.145386,383.942810 
	C1259.414551,380.371826 1254.407715,377.724060 1249.528809,375.837830 
	C1233.882080,369.788635 1217.587646,369.931274 1201.229248,372.091217 
	C1195.346558,372.867981 1193.762573,372.007477 1192.138062,366.534790 
	C1190.375977,360.598846 1184.770508,358.219696 1179.215454,361.087830 
	C1175.134766,363.194794 1173.503296,366.788757 1172.773438,371.164948 
	C1166.003418,411.754517 1159.208130,452.340149 1152.289917,492.904694 
	C1149.807373,507.461670 1152.703491,506.583588 1135.091309,507.915314 
	C1110.351196,509.786011 1085.598267,511.484314 1060.850952,513.257996 
	C1038.929932,514.829224 1017.009216,516.405212 995.087952,517.973694 
	C989.107239,518.401611 983.109558,518.657593 977.147095,519.262329 
	C967.852295,520.205078 964.164978,523.438965 961.922180,532.378967 
	C960.828003,536.740356 959.905518,541.146606 958.980103,545.548340 
	C955.790833,560.717896 950.743103,575.124390 940.933350,587.386780 
	C928.242249,603.251038 910.882385,609.717773 891.290161,612.019470 
	C850.523743,616.808716 809.545471,617.463196 768.614502,617.649414 
	C734.332703,617.805420 700.025574,616.205444 665.761108,614.676575 
	C649.825562,613.965515 633.906616,612.003601 618.085571,609.838440 
	C600.517639,607.434204 585.566772,599.594177 575.182190,584.850037 
	C571.106873,579.063843 567.976929,572.462585 565.291931,565.875610 
	C558.345642,548.834595 561.644348,548.071472 537.381714,545.945312 
	C513.828186,543.881226 490.272247,541.805298 466.756317,539.359985 
	C439.092621,536.483398 411.375397,533.871399 383.854156,529.936218 
	C346.109161,524.539307 308.290100,519.175598 270.942841,511.621826 
	C235.549545,504.463257 200.746384,494.405731 165.627396,485.854431 
	C159.367249,484.330139 152.856522,483.556763 146.416138,483.143524 
	C141.692062,482.840393 138.113220,485.454773 136.637070,490.184143 
	C135.178574,494.856964 136.595367,498.828491 140.414352,501.712280 
	C142.782455,503.500549 145.464096,504.919098 148.124802,506.267120 
	C171.437500,518.078308 195.103516,529.241882 217.997360,541.812927 
	C234.004028,550.602234 249.263229,560.919006 260.948364,575.493286 
	C263.028137,578.087280 264.377777,581.386169 268.266144,582.145264 
	C269.100983,582.308228 269.725433,583.847656 270.333496,584.823547 
	C273.678833,590.192505 276.077240,596.564453 280.544342,600.715881 
	C286.005035,605.790649 288.908844,611.880737 290.994751,618.376160 
	C293.883545,627.371826 296.700958,636.604248 297.749298,645.937500 
	C301.118774,675.934814 314.038055,702.781677 325.744293,729.773132 
	C333.649689,748.000916 347.316376,763.010376 363.689178,775.038086 
	C376.013641,784.091797 387.477539,794.452759 400.371826,802.567566 
	C429.503784,820.901123 461.877960,831.093384 495.483521,837.711914 
	C500.253601,838.651367 504.753998,841.266418 509.527527,841.814636 
	C517.906189,842.777039 526.418640,842.506409 534.839783,843.187744 
	C543.264038,843.869507 551.645203,845.084534 560.475037,846.815308 
	C562.959106,846.855896 565.443176,846.930176 567.927246,846.932007 
	C609.313904,846.962891 650.700500,846.999390 692.087158,847.003479 
	C721.025574,847.006287 749.964050,846.962036 779.843811,847.082825 
M1289.548096,578.490173 
	C1289.548096,578.490173 1289.480225,578.520813 1289.548096,578.490173 
M1328.437134,441.489258 
	C1328.437134,441.489258 1328.521362,441.445435 1328.437134,441.489258 
M1330.615356,440.506866 
	C1330.615356,440.506866 1330.428467,440.397308 1330.428467,440.397308 
	C1330.428467,440.397308 1330.452393,440.607819 1330.615356,440.506866 
z"/>
<path fill="#1A1714" opacity="1.000000" stroke="none" 
	d="
M905.035400,848.033447 
	C896.349548,847.052368 887.665649,845.239075 878.977478,845.218079 
	C785.566040,844.992615 692.153870,845.031067 598.741943,845.053467 
	C586.769287,845.056335 574.796753,845.378174 562.105652,845.739990 
	C560.939819,845.973755 560.492554,846.019714 560.045227,846.065735 
	C551.645203,845.084534 543.264038,843.869507 534.839783,843.187744 
	C526.418640,842.506409 517.906189,842.777039 509.527527,841.814636 
	C504.753998,841.266418 500.253601,838.651367 495.483521,837.711914 
	C461.877960,831.093384 429.503784,820.901123 400.371826,802.567566 
	C387.477539,794.452759 376.013641,784.091797 363.689178,775.038086 
	C347.316376,763.010376 333.649689,748.000916 325.744293,729.773132 
	C314.038055,702.781677 301.118774,675.934814 297.749298,645.937500 
	C296.700958,636.604248 293.883545,627.371826 290.994751,618.376160 
	C288.908844,611.880737 286.005035,605.790649 280.544342,600.715881 
	C276.077240,596.564453 273.678833,590.192505 270.333496,584.823547 
	C269.725433,583.847656 269.100983,582.308228 268.266144,582.145264 
	C264.377777,581.386169 263.028137,578.087280 260.948364,575.493286 
	C249.263229,560.919006 234.004028,550.602234 217.997360,541.812927 
	C195.103516,529.241882 171.437500,518.078308 148.124802,506.267120 
	C145.464096,504.919098 142.782455,503.500549 140.414352,501.712280 
	C136.595367,498.828491 135.178574,494.856964 136.637070,490.184143 
	C138.113220,485.454773 141.692062,482.840393 146.416138,483.143524 
	C152.856522,483.556763 159.367249,484.330139 165.627396,485.854431 
	C200.746384,494.405731 235.549545,504.463257 270.942841,511.621826 
	C308.290100,519.175598 346.109161,524.539307 383.854156,529.936218 
	C411.375397,533.871399 439.092621,536.483398 466.756317,539.359985 
	C490.272247,541.805298 513.828186,543.881226 537.381714,545.945312 
	C561.644348,548.071472 558.345642,548.834595 565.291931,565.875610 
	C567.976929,572.462585 571.106873,579.063843 575.182190,584.850037 
	C585.566772,599.594177 600.517639,607.434204 618.085571,609.838440 
	C633.906616,612.003601 649.825562,613.965515 665.761108,614.676575 
	C700.025574,616.205444 734.332703,617.805420 768.614502,617.649414 
	C809.545471,617.463196 850.523743,616.808716 891.290161,612.019470 
	C910.882385,609.717773 928.242249,603.251038 940.933350,587.386780 
	C950.743103,575.124390 955.790833,560.717896 958.980103,545.548340 
	C959.905518,541.146606 960.828003,536.740356 961.922180,532.378967 
	C964.164978,523.438965 967.852295,520.205078 977.147095,519.262329 
	C983.109558,518.657593 989.107239,518.401611 995.087952,517.973694 
	C1017.009216,516.405212 1038.929932,514.829224 1060.850952,513.257996 
	C1085.598267,511.484314 1110.351196,509.786011 1135.091309,507.915314 
	C1152.703491,506.583588 1149.807373,507.461670 1152.289917,492.904694 
	C1159.208130,452.340149 1166.003418,411.754517 1172.773438,371.164948 
	C1173.503296,366.788757 1175.134766,363.194794 1179.215454,361.087830 
	C1184.770508,358.219696 1190.375977,360.598846 1192.138062,366.534790 
	C1193.762573,372.007477 1195.346558,372.867981 1201.229248,372.091217 
	C1217.587646,369.931274 1233.882080,369.788635 1249.528809,375.837830 
	C1254.407715,377.724060 1259.414551,380.371826 1263.145386,383.942810 
	C1277.878052,398.044434 1295.442871,399.860107 1314.344238,397.079834 
	C1317.000122,396.689178 1319.678467,396.450714 1322.346558,396.141754 
	C1322.582275,396.569977 1322.817993,396.998199 1323.053711,397.426422 
	C1321.861694,399.297394 1321.093384,401.795776 1319.406982,402.935028 
	C1310.178955,409.168823 1300.714111,415.051636 1291.359985,421.100098 
	C1289.749023,422.141724 1286.810425,423.818542 1287.000366,424.484131 
	C1287.757446,427.137451 1288.910522,430.346436 1290.997314,431.834595 
	C1299.439941,437.855377 1309.513916,438.884766 1319.494507,439.901855 
	C1321.281006,440.083893 1323.082642,440.118256 1325.417480,441.277008 
	C1323.980103,442.395050 1322.616211,443.626312 1321.094482,444.614197 
	C1297.997925,459.607849 1260.850830,461.241089 1237.975342,442.255585 
	C1225.669800,432.042603 1210.714844,432.763458 1195.940186,435.400452 
	C1181.786621,437.926605 1181.753662,438.059326 1179.321655,452.087921 
	C1176.760742,466.860046 1174.272949,481.645447 1171.861938,496.442749 
	C1170.760986,503.200378 1172.749634,505.395935 1179.685669,504.808868 
	C1204.241821,502.730530 1228.781738,500.460571 1253.336426,498.365723 
	C1263.619141,497.488525 1273.921021,496.824799 1284.220947,496.171112 
	C1286.023682,496.056671 1287.879028,496.363220 1289.678101,496.665283 
	C1299.078491,498.243439 1301.876465,501.348907 1300.858398,510.891602 
	C1299.941772,519.484070 1298.236084,528.010864 1296.535278,536.497986 
	C1290.512451,566.555420 1284.227783,596.560913 1278.307251,626.638306 
	C1276.777100,634.412048 1272.286377,638.567749 1265.230957,641.518005 
	C1252.821533,646.707275 1240.647339,652.482849 1228.546509,658.366272 
	C1226.210938,659.501831 1224.726074,662.322266 1222.735474,664.248474 
	C1220.255737,666.647827 1217.989868,669.530945 1215.049072,671.141357 
	C1206.665527,675.732178 1202.380737,683.741516 1197.535400,691.215576 
	C1189.794800,703.155701 1186.669922,716.880615 1183.108887,730.434326 
	C1175.405273,759.755859 1167.605347,789.052917 1159.643799,818.305359 
	C1157.098389,827.657288 1152.840332,836.270325 1143.939331,841.178101 
	C1139.494629,843.628662 1134.379150,844.862915 1128.929688,846.839844 
	C1127.846558,847.009033 1127.400879,846.985779 1126.569336,846.830322 
	C1124.044434,846.472168 1121.905762,846.050781 1119.766724,846.048950 
	C1074.671265,846.009949 1029.575928,846.004822 984.480530,846.053955 
	C982.017883,846.056641 979.555786,846.589783 976.681335,846.905273 
	C975.168823,846.938293 974.068359,846.942139 972.863831,847.026428 
	C972.484253,847.197449 972.241699,847.143799 971.626343,846.981201 
	C970.136292,846.992188 969.052002,846.967773 967.863464,847.023926 
	C967.483765,847.195129 967.241028,847.141418 966.590698,846.974976 
	C964.090881,846.987915 962.031616,846.969238 959.866760,847.030273 
	C959.484741,847.199707 959.240173,847.146729 958.559448,846.981934 
	C948.666077,846.994324 939.240662,846.948914 929.815430,846.970886 
	C926.025085,846.979736 922.232300,847.073547 918.445740,847.242432 
	C913.972778,847.441833 909.505249,847.764282 905.035400,848.033447 
M1128.147949,535.083252 
	C1128.147949,535.083252 1128.013916,535.280029 1127.514526,534.883728 
	C1118.894165,535.329407 1110.244019,535.513794 1101.683350,536.485657 
	C1100.303955,536.642334 1098.559204,540.219971 1098.313599,542.368286 
	C1097.771362,547.111877 1097.870361,551.963074 1098.117065,556.749268 
	C1098.255615,559.440613 1099.208618,562.090027 1100.041016,565.068237 
	C1100.041016,565.068237 1100.287109,565.378418 1100.750977,565.725098 
	C1103.672485,565.768188 1106.637207,566.150330 1109.506592,565.784302 
	C1115.615845,565.005005 1121.675659,563.837158 1127.784058,562.206360 
	C1127.864868,561.800110 1127.945801,561.393860 1128.511475,560.478943 
	C1128.326660,551.966248 1128.141846,543.453552 1128.147949,535.083252 
M1174.371094,530.815430 
	C1166.946289,531.128784 1159.497314,531.179810 1152.106812,531.863586 
	C1148.285034,532.217163 1147.332520,535.533691 1147.319824,538.975464 
	C1147.297607,544.945618 1147.436768,550.920532 1147.234131,556.884155 
	C1147.098999,560.861572 1148.999390,562.343262 1152.634155,562.177734 
	C1157.115723,561.973694 1161.622437,561.906006 1166.063232,561.344604 
	C1169.748779,560.878784 1173.354736,559.783081 1176.939453,558.151794 
	C1176.977417,552.355164 1177.240479,546.547791 1176.964600,540.766113 
	C1176.810547,537.538330 1175.761108,534.353210 1174.371094,530.815430 
M504.941986,570.016724 
	C504.989075,578.966736 505.036163,587.916687 505.569946,597.385376 
	C506.566925,597.946716 507.518311,598.884460 508.567902,599.011719 
	C520.463379,600.453918 532.362915,601.883667 544.286560,603.061157 
	C548.287781,603.456299 548.476562,600.642395 547.681641,597.675781 
	C545.827942,590.758423 543.734619,583.899353 542.095337,576.932617 
	C541.145996,572.898254 538.862305,570.909607 534.933960,570.501953 
	C530.463684,570.038086 525.996948,569.396118 521.514038,569.234436 
	C516.117188,569.039856 510.705109,569.269226 504.941986,570.016724 
M625.994263,656.993530 
	C625.994263,656.993530 626.010498,657.003113 625.795715,656.333008 
	C624.321411,652.434753 621.029907,651.407471 617.376038,651.267151 
	C612.882568,651.094543 608.378235,651.110657 603.880432,651.172852 
	C599.723633,651.230225 595.502075,651.054932 591.435181,651.735779 
	C588.228027,652.272644 585.011536,653.612610 585.040344,658.046082 
	C585.082092,664.468018 585.225525,670.919373 584.699829,677.306641 
	C584.174377,683.691406 586.319519,687.918701 592.551758,688.363342 
	C601.330933,688.989685 610.187866,688.823181 618.999084,688.566528 
	C622.972351,688.450745 626.367310,686.125488 626.461182,681.841003 
	C626.642517,673.560730 626.175781,665.266357 625.994263,656.993530 
M712.461792,658.211609 
	C711.748657,653.594482 708.458984,651.600403 704.381470,651.453247 
	C695.736206,651.141296 687.060181,651.038025 678.421631,651.416016 
	C672.837158,651.660522 670.333618,654.617737 670.185547,660.144409 
	C670.020508,666.300842 670.005432,672.475952 670.289185,678.626099 
	C670.620972,685.818481 673.753235,688.713928 681.070129,688.873596 
	C687.729492,689.018982 694.395386,689.032471 701.055542,688.924561 
	C709.587097,688.786194 712.705505,685.607849 712.787842,676.967041 
	C712.844788,670.987305 712.655518,665.005249 712.461792,658.211609 
M773.464233,688.932068 
	C775.793945,688.907349 778.128723,688.972778 780.452332,688.840759 
	C787.165283,688.459656 790.450562,685.614197 790.631409,679.040771 
	C790.818298,672.245422 790.416382,665.420776 789.991272,658.626465 
	C789.710083,654.132080 786.813293,651.564758 782.463196,651.440308 
	C773.820862,651.192810 765.160217,651.139038 756.520569,651.418518 
	C751.923218,651.567200 749.163269,654.391235 749.099609,659.181580 
	C749.006775,666.169495 748.885864,673.166565 749.138184,680.146606 
	C749.346252,685.904236 752.084595,688.482117 758.000183,688.787598 
	C762.815125,689.036194 767.650024,688.897034 773.464233,688.932068 
M996.367371,574.402832 
	C1006.299866,573.654053 1016.227905,572.835022 1026.167358,572.195374 
	C1029.559570,571.977051 1031.440430,570.694336 1031.466309,567.087036 
	C1031.514038,560.443604 1031.695679,553.801331 1031.782104,547.158081 
	C1031.842896,542.488892 1029.409668,540.545898 1024.862183,540.905518 
	C1014.273071,541.743103 1003.647949,542.276550 993.116272,543.573486 
	C990.751953,543.864746 987.478394,546.368591 986.746765,548.562134 
	C984.337524,555.784485 982.828186,563.314880 981.129639,570.762634 
	C980.424683,573.853638 981.767395,575.601990 985.125549,575.355042 
	C988.598755,575.099609 992.069946,574.815002 996.367371,574.402832 
M860.718201,687.428528 
	C862.125244,684.793457 864.451111,682.258118 864.750061,679.502747 
	C865.393127,673.576721 865.050903,667.537048 865.003845,661.544739 
	C864.947998,654.441101 862.185242,651.463745 855.102417,651.276428 
	C847.952332,651.087280 840.790710,651.128479 833.638794,651.282715 
	C828.159607,651.400879 824.600342,654.437988 824.322693,659.743347 
	C823.966614,666.546570 824.016968,673.391602 824.308594,680.200806 
	C824.500366,684.680359 827.227722,688.188232 831.702942,688.308594 
	C841.120117,688.561768 850.559326,687.996643 860.718201,687.428528 
M942.701599,680.778931 
	C942.727051,673.952332 942.972534,667.117249 942.711975,660.301575 
	C942.482910,654.308960 939.532349,651.428223 933.597961,651.255798 
	C926.610107,651.052734 919.597351,651.002197 912.619812,651.361023 
	C906.577698,651.671753 903.752563,654.463318 903.398438,660.448303 
	C903.035339,666.586426 902.999634,672.782593 903.394409,678.916443 
	C903.835083,685.764343 906.718445,688.475037 913.548462,688.777649 
	C920.032349,689.064941 926.539185,688.973877 933.032654,688.860291 
	C937.876221,688.775635 941.260376,686.487793 942.701599,680.778931 
M1063.047729,537.701172 
	C1060.428467,538.161316 1057.824585,538.859436 1055.186646,539.028076 
	C1050.793335,539.308838 1048.992188,541.531616 1049.067871,545.798828 
	C1049.171265,551.626831 1049.015869,557.459778 1049.138184,563.287048 
	C1049.250610,568.639587 1050.774536,570.355896 1056.033936,570.094055 
	C1062.329346,569.780701 1068.596680,568.877319 1074.872314,568.194092 
	C1078.571045,567.791321 1079.928589,565.464355 1079.904663,561.983154 
	C1079.864746,556.153748 1079.993896,550.320923 1079.835571,544.495361 
	C1079.663208,538.158569 1078.857666,537.566895 1072.370972,537.703064 
	C1069.545288,537.762451 1066.715698,537.635071 1063.047729,537.701172 
M1226.967285,545.293701 
	C1226.951172,540.808472 1226.915283,536.323181 1226.924805,531.838013 
	C1226.933105,527.908325 1224.939941,525.827576 1221.084106,526.115906 
	C1214.468506,526.610657 1207.813965,527.073486 1201.313232,528.286011 
	C1199.605713,528.604492 1197.363892,531.515320 1197.155884,533.429993 
	C1196.423584,540.170532 1196.390259,546.993835 1196.250366,553.789062 
	C1196.170898,557.651428 1198.478394,559.018250 1202.094849,558.756287 
	C1206.563965,558.432434 1211.034424,558.091125 1215.510498,557.909424 
	C1224.843628,557.530518 1226.838623,555.540161 1226.967285,545.293701 
M424.787659,559.834473 
	C420.683319,559.218384 416.580994,558.588257 412.473999,557.990540 
	C409.001556,557.485352 407.026581,558.767456 407.047150,562.519470 
	C407.085388,569.493469 407.053680,576.467957 407.090576,583.441956 
	C407.108276,586.788391 408.763702,588.649963 412.173431,589.003723 
	C418.612518,589.671692 425.049194,590.373413 431.473358,591.170410 
	C435.112732,591.621887 436.819611,590.044189 436.863007,586.501343 
	C436.921936,581.686096 436.952148,576.870300 436.954010,572.054749 
	C436.958221,561.142700 436.948120,561.142700 426.163483,559.965759 
	C425.998444,559.947754 425.832672,559.936218 424.787659,559.834473 
M455.935608,565.759338 
	C455.745972,573.696411 455.270294,581.645874 455.610687,589.560120 
	C455.677887,591.122681 458.694305,593.444275 460.682922,593.872375 
	C466.677338,595.162903 472.840698,595.656616 478.928070,596.531433 
	C483.032745,597.121277 484.884735,595.231628 484.903961,591.283264 
	C484.935516,584.799194 484.892609,578.314697 484.918427,571.830505 
	C484.932678,568.254639 483.238220,566.221497 479.674286,565.783936 
	C473.406494,565.014221 467.149353,564.118835 460.861694,563.580078 
	C459.423492,563.456909 457.879425,564.569519 455.935608,565.759338 
M361.215820,553.852844 
	C360.950958,562.443298 360.509247,571.035889 360.609375,579.622070 
	C360.624603,580.929199 362.993652,583.063110 364.543427,583.347839 
	C370.750244,584.488220 377.047882,585.239868 383.343079,585.752380 
	C386.865692,586.039246 388.963074,584.077087 388.955353,580.307739 
	C388.942078,573.814270 388.924072,567.320618 388.954865,560.827332 
	C388.974426,556.705322 386.722748,554.801636 382.868896,554.355469 
	C378.240234,553.819580 373.623444,553.123596 368.980499,552.792603 
	C366.596100,552.622742 364.165894,553.095764 361.215820,553.852844 
M1270.295044,524.117310 
	C1268.512573,523.444885 1266.716309,522.172607 1264.950317,522.213440 
	C1259.813354,522.332336 1254.680420,522.901184 1249.561646,523.441772 
	C1246.065308,523.810974 1244.237427,525.859802 1244.231079,529.452026 
	C1244.221069,535.104187 1244.124756,540.756897 1244.176392,546.408325 
	C1244.209961,550.077148 1243.926392,554.058350 1249.063354,554.786926 
	C1257.853638,556.033813 1266.888306,553.385803 1268.245361,549.161316 
	C1268.498169,548.374451 1268.648071,547.548096 1268.777832,546.729126 
	C1269.635620,541.311768 1270.591675,535.905579 1271.255859,530.464050 
	C1271.484253,528.594238 1270.967896,526.633606 1270.295044,524.117310 
z"/>
<path fill="#64615F" opacity="1.000000" stroke="none" 
	d="
M967.967651,846.943359 
	C969.052002,846.967773 970.136292,846.992188 971.860352,847.003235 
	C972.500000,846.989929 972.967957,846.945923 972.967957,846.945923 
	C974.068359,846.942139 975.168823,846.938293 977.134216,847.000610 
	C1027.651245,847.032043 1077.303345,846.997253 1126.955322,846.962524 
	C1127.400879,846.985779 1127.846558,847.009033 1128.627930,847.042847 
	C1127.108521,847.367493 1125.253052,847.956604 1123.397949,847.955688 
	C1075.474609,847.931458 1027.551270,847.807434 979.627991,847.789917 
	C960.684204,847.783020 941.740112,848.052307 922.796753,847.994324 
	C921.054199,847.989014 919.379639,846.072021 917.563354,845.812134 
	C913.087463,845.171753 908.547546,844.979553 904.033325,844.607178 
	C903.991272,845.556702 903.949158,846.506165 904.471252,847.744568 
	C909.505249,847.764282 913.972778,847.441833 918.445740,847.242432 
	C922.232300,847.073547 926.025085,846.979736 929.815430,846.970886 
	C939.240662,846.948914 948.666077,846.994324 958.795654,847.003784 
	C959.499939,846.994934 959.972351,846.950562 959.972351,846.950562 
	C962.031616,846.969238 964.090881,846.987915 966.824768,846.997009 
	C967.499390,846.987427 967.967651,846.943359 967.967651,846.943359 
z"/>
<path fill="#64615F" opacity="1.000000" stroke="none" 
	d="
M560.260132,846.440491 
	C560.492554,846.019714 560.939819,845.973755 561.719116,845.868164 
	C582.997925,845.895691 603.944702,846.034851 624.891602,846.059082 
	C667.440369,846.108337 709.989075,846.094910 752.537842,846.108765 
	C761.018494,846.111511 769.499146,846.120728 778.478027,846.313354 
	C778.976257,846.499695 778.902466,846.938782 778.902466,846.938782 
	C749.964050,846.962036 721.025574,847.006287 692.087158,847.003479 
	C650.700500,846.999390 609.313904,846.962891 567.927246,846.932007 
	C565.443176,846.930176 562.959106,846.855896 560.260132,846.440491 
z"/>
<path fill="#1A1714" opacity="1.000000" stroke="none" 
	d="
M779.373169,847.010803 
	C778.902466,846.938782 778.976257,846.499695 778.939819,846.280151 
	C792.720642,845.985779 806.537842,845.870178 820.355164,845.845764 
	C841.153320,845.809082 861.951599,845.836182 882.749878,845.836182 
	C882.750916,846.251709 882.751892,846.667297 882.752930,847.082825 
	C848.449890,847.082825 814.146851,847.082825 779.373169,847.010803 
z"/>
<path fill="#1A1714" opacity="1.000000" stroke="none" 
	d="
M1289.514160,578.505493 
	C1289.480225,578.520813 1289.548096,578.490173 1289.514160,578.505493 
z"/>
<path fill="#1A1714" opacity="1.000000" stroke="none" 
	d="
M1328.479248,441.467346 
	C1328.521362,441.445435 1328.437134,441.489258 1328.479248,441.467346 
z"/>
<path fill="#1A1714" opacity="1.000000" stroke="none" 
	d="
M1330.533936,440.557343 
	C1330.452393,440.607819 1330.428467,440.397308 1330.428467,440.397308 
	C1330.428467,440.397308 1330.615356,440.506866 1330.533936,440.557343 
z"/>
<path fill="#000000" opacity="1.000000" stroke="none" 
	d="
M712.519043,658.617920 
	C712.655518,665.005249 712.844788,670.987305 712.787842,676.967041 
	C712.705505,685.607849 709.587097,688.786194 701.055542,688.924561 
	C694.395386,689.032471 687.729492,689.018982 681.070129,688.873596 
	C673.753235,688.713928 670.620972,685.818481 670.289185,678.626099 
	C670.005432,672.475952 670.020508,666.300842 670.185547,660.144409 
	C670.333618,654.617737 672.837158,651.660522 678.421631,651.416016 
	C687.060181,651.038025 695.736206,651.141296 704.381470,651.453247 
	C708.458984,651.600403 711.748657,653.594482 712.519043,658.617920 
z"/>
<path fill="#000000" opacity="1.000000" stroke="none" 
	d="
M772.970154,688.930908 
	C767.650024,688.897034 762.815125,689.036194 758.000183,688.787598 
	C752.084595,688.482117 749.346252,685.904236 749.138184,680.146606 
	C748.885864,673.166565 749.006775,666.169495 749.099609,659.181580 
	C749.163269,654.391235 751.923218,651.567200 756.520569,651.418518 
	C765.160217,651.139038 773.820862,651.192810 782.463196,651.440308 
	C786.813293,651.564758 789.710083,654.132080 789.991272,658.626465 
	C790.416382,665.420776 790.818298,672.245422 790.631409,679.040771 
	C790.450562,685.614197 787.165283,688.459656 780.452332,688.840759 
	C778.128723,688.972778 775.793945,688.907349 772.970154,688.930908 
z"/>
<path fill="#000000" opacity="1.000000" stroke="none" 
	d="
M995.954712,574.473022 
	C992.069946,574.815002 988.598755,575.099609 985.125549,575.355042 
	C981.767395,575.601990 980.424683,573.853638 981.129639,570.762634 
	C982.828186,563.314880 984.337524,555.784485 986.746765,548.562134 
	C987.478394,546.368591 990.751953,543.864746 993.116272,543.573486 
	C1003.647949,542.276550 1014.273071,541.743103 1024.862183,540.905518 
	C1029.409668,540.545898 1031.842896,542.488892 1031.782104,547.158081 
	C1031.695679,553.801331 1031.514038,560.443604 1031.466309,567.087036 
	C1031.440430,570.694336 1029.559570,571.977051 1026.167358,572.195374 
	C1016.227905,572.835022 1006.299866,573.654053 995.954712,574.473022 
z"/>
<path fill="#000000" opacity="1.000000" stroke="none" 
	d="
M625.977600,656.977783 
	C626.175781,665.266357 626.642517,673.560730 626.461182,681.841003 
	C626.367310,686.125488 622.972351,688.450745 618.999084,688.566528 
	C610.187866,688.823181 601.330933,688.989685 592.551758,688.363342 
	C586.319519,687.918701 584.174377,683.691406 584.699829,677.306641 
	C585.225525,670.919373 585.082092,664.468018 585.040344,658.046082 
	C585.011536,653.612610 588.228027,652.272644 591.435181,651.735779 
	C595.502075,651.054932 599.723633,651.230225 603.880432,651.172852 
	C608.378235,651.110657 612.882568,651.094543 617.376038,651.267151 
	C621.029907,651.407471 624.321411,652.434753 625.736450,657.047363 
	C625.333862,664.864868 624.990662,671.968018 624.647400,679.071228 
	C625.090820,679.079468 625.534180,679.087646 625.977600,679.095886 
	C625.977600,671.723206 625.977600,664.350464 625.977600,656.977783 
z"/>
<path fill="#000000" opacity="1.000000" stroke="none" 
	d="
M860.353882,687.598022 
	C850.559326,687.996643 841.120117,688.561768 831.702942,688.308594 
	C827.227722,688.188232 824.500366,684.680359 824.308594,680.200806 
	C824.016968,673.391602 823.966614,666.546570 824.322693,659.743347 
	C824.600342,654.437988 828.159607,651.400879 833.638794,651.282715 
	C840.790710,651.128479 847.952332,651.087280 855.102417,651.276428 
	C862.185242,651.463745 864.947998,654.441101 865.003845,661.544739 
	C865.050903,667.537048 865.393127,673.576721 864.750061,679.502747 
	C864.451111,682.258118 862.125244,684.793457 860.353882,687.598022 
z"/>
<path fill="#000000" opacity="1.000000" stroke="none" 
	d="
M942.632141,681.193359 
	C941.260376,686.487793 937.876221,688.775635 933.032654,688.860291 
	C926.539185,688.973877 920.032349,689.064941 913.548462,688.777649 
	C906.718445,688.475037 903.835083,685.764343 903.394409,678.916443 
	C902.999634,672.782593 903.035339,666.586426 903.398438,660.448303 
	C903.752563,654.463318 906.577698,651.671753 912.619812,651.361023 
	C919.597351,651.002197 926.610107,651.052734 933.597961,651.255798 
	C939.532349,651.428223 942.482910,654.308960 942.711975,660.301575 
	C942.972534,667.117249 942.727051,673.952332 942.632141,681.193359 
z"/>
<path fill="#000000" opacity="1.000000" stroke="none" 
	d="
M505.299622,569.315063 
	C510.705109,569.269226 516.117188,569.039856 521.514038,569.234436 
	C525.996948,569.396118 530.463684,570.038086 534.933960,570.501953 
	C538.862305,570.909607 541.145996,572.898254 542.095337,576.932617 
	C543.734619,583.899353 545.827942,590.758423 547.681641,597.675781 
	C548.476562,600.642395 548.287781,603.456299 544.286560,603.061157 
	C532.362915,601.883667 520.463379,600.453918 508.567902,599.011719 
	C507.518311,598.884460 506.566925,597.946716 505.337860,597.122864 
	C505.105774,596.860352 505.125854,596.846680 505.338806,596.503906 
	C505.485840,587.219788 505.419922,578.278564 505.341125,569.329590 
	C505.328247,569.321960 505.299622,569.315063 505.299622,569.315063 
z"/>
<path fill="#000000" opacity="1.000000" stroke="none" 
	d="
M1063.467773,537.646851 
	C1066.715698,537.635071 1069.545288,537.762451 1072.370972,537.703064 
	C1078.857666,537.566895 1079.663208,538.158569 1079.835571,544.495361 
	C1079.993896,550.320923 1079.864746,556.153748 1079.904663,561.983154 
	C1079.928589,565.464355 1078.571045,567.791321 1074.872314,568.194092 
	C1068.596680,568.877319 1062.329346,569.780701 1056.033936,570.094055 
	C1050.774536,570.355896 1049.250610,568.639587 1049.138184,563.287048 
	C1049.015869,557.459778 1049.171265,551.626831 1049.067871,545.798828 
	C1048.992188,541.531616 1050.793335,539.308838 1055.186646,539.028076 
	C1057.824585,538.859436 1060.428467,538.161316 1063.467773,537.646851 
z"/>
<path fill="#000000" opacity="1.000000" stroke="none" 
	d="
M1226.967896,545.753906 
	C1226.838623,555.540161 1224.843628,557.530518 1215.510498,557.909424 
	C1211.034424,558.091125 1206.563965,558.432434 1202.094849,558.756287 
	C1198.478394,559.018250 1196.170898,557.651428 1196.250366,553.789062 
	C1196.390259,546.993835 1196.423584,540.170532 1197.155884,533.429993 
	C1197.363892,531.515320 1199.605713,528.604492 1201.313232,528.286011 
	C1207.813965,527.073486 1214.468506,526.610657 1221.084106,526.115906 
	C1224.939941,525.827576 1226.933105,527.908325 1226.924805,531.838013 
	C1226.915283,536.323181 1226.951172,540.808472 1226.967896,545.753906 
z"/>
<path fill="#000000" opacity="1.000000" stroke="none" 
	d="
M425.227448,559.878052 
	C425.832672,559.936218 425.998444,559.947754 426.163483,559.965759 
	C436.948120,561.142700 436.958221,561.142700 436.954010,572.054749 
	C436.952148,576.870300 436.921936,581.686096 436.863007,586.501343 
	C436.819611,590.044189 435.112732,591.621887 431.473358,591.170410 
	C425.049194,590.373413 418.612518,589.671692 412.173431,589.003723 
	C408.763702,588.649963 407.108276,586.788391 407.090576,583.441956 
	C407.053680,576.467957 407.085388,569.493469 407.047150,562.519470 
	C407.026581,558.767456 409.001556,557.485352 412.473999,557.990540 
	C416.580994,558.588257 420.683319,559.218384 425.227448,559.878052 
z"/>
<path fill="#000000" opacity="1.000000" stroke="none" 
	d="
M456.159851,565.436340 
	C457.879425,564.569519 459.423492,563.456909 460.861694,563.580078 
	C467.149353,564.118835 473.406494,565.014221 479.674286,565.783936 
	C483.238220,566.221497 484.932678,568.254639 484.918427,571.830505 
	C484.892609,578.314697 484.935516,584.799194 484.903961,591.283264 
	C484.884735,595.231628 483.032745,597.121277 478.928070,596.531433 
	C472.840698,595.656616 466.677338,595.162903 460.682922,593.872375 
	C458.694305,593.444275 455.677887,591.122681 455.610687,589.560120 
	C455.270294,581.645874 455.745972,573.696411 456.159851,565.436340 
z"/>
<path fill="#000000" opacity="1.000000" stroke="none" 
	d="
M361.486084,553.565552 
	C364.165894,553.095764 366.596100,552.622742 368.980499,552.792603 
	C373.623444,553.123596 378.240234,553.819580 382.868896,554.355469 
	C386.722748,554.801636 388.974426,556.705322 388.954865,560.827332 
	C388.924072,567.320618 388.942078,573.814270 388.955353,580.307739 
	C388.963074,584.077087 386.865692,586.039246 383.343079,585.752380 
	C377.047882,585.239868 370.750244,584.488220 364.543427,583.347839 
	C362.993652,583.063110 360.624603,580.929199 360.609375,579.622070 
	C360.509247,571.035889 360.950958,562.443298 361.486084,553.565552 
z"/>
<path fill="#000000" opacity="1.000000" stroke="none" 
	d="
M1176.995972,558.966370 
	C1173.354736,559.783081 1169.748779,560.878784 1166.063232,561.344604 
	C1161.622437,561.906006 1157.115723,561.973694 1152.634155,562.177734 
	C1148.999390,562.343262 1147.098999,560.861572 1147.234131,556.884155 
	C1147.436768,550.920532 1147.297607,544.945618 1147.319824,538.975464 
	C1147.332520,535.533691 1148.285034,532.217163 1152.106812,531.863586 
	C1159.497314,531.179810 1166.946289,531.128784 1174.907227,531.358398 
	C1175.619751,540.074829 1175.767578,548.249268 1176.015015,556.420654 
	C1176.041016,557.278320 1176.654785,558.118225 1176.995972,558.966370 
z"/>
<path fill="#000000" opacity="1.000000" stroke="none" 
	d="
M1127.755737,562.828552 
	C1121.675659,563.837158 1115.615845,565.005005 1109.506592,565.784302 
	C1106.637207,566.150330 1103.672485,565.768188 1100.900269,565.545532 
	C1102.807007,565.244629 1104.564453,565.123291 1106.322021,565.002014 
	C1106.247803,564.531677 1106.173706,564.061401 1106.099609,563.591064 
	C1103.997925,563.980164 1101.896362,564.369263 1099.794678,564.758362 
	C1099.208618,562.090027 1098.255615,559.440613 1098.117065,556.749268 
	C1097.870361,551.963074 1097.771362,547.111877 1098.313599,542.368286 
	C1098.559204,540.219971 1100.303955,536.642334 1101.683350,536.485657 
	C1110.244019,535.513794 1118.894165,535.329407 1127.382324,534.968018 
	C1125.579102,535.126648 1123.908081,535.200989 1122.237183,535.275269 
	C1122.244873,535.388428 1122.252441,535.501526 1122.260132,535.614685 
	C1123.712891,535.854736 1125.165527,536.094849 1126.564209,536.325989 
	C1128.449463,546.733215 1127.502686,560.794556 1124.636353,562.828552 
	C1125.804077,562.828552 1126.779907,562.828552 1127.755737,562.828552 
M1100.026367,559.410706 
	C1100.026367,554.528992 1100.026367,549.647217 1100.026367,544.765503 
	C1099.471436,544.792908 1098.916504,544.820312 1098.361572,544.847717 
	C1098.868530,549.851440 1099.375610,554.855225 1100.026367,559.410706 
z"/>
<path fill="#000000" opacity="1.000000" stroke="none" 
	d="
M1270.543457,524.415894 
	C1270.967896,526.633606 1271.484253,528.594238 1271.255859,530.464050 
	C1270.591675,535.905579 1269.635620,541.311768 1268.777832,546.729126 
	C1268.648071,547.548096 1268.498169,548.374451 1268.245361,549.161316 
	C1266.888306,553.385803 1257.853638,556.033813 1249.063354,554.786926 
	C1243.926392,554.058350 1244.209961,550.077148 1244.176392,546.408325 
	C1244.124756,540.756897 1244.221069,535.104187 1244.231079,529.452026 
	C1244.237427,525.859802 1246.065308,523.810974 1249.561646,523.441772 
	C1254.680420,522.901184 1259.813354,522.332336 1264.950317,522.213440 
	C1266.716309,522.172607 1268.512573,523.444885 1270.543457,524.415894 
z"/>
<path fill="#000000" opacity="1.000000" stroke="none" 
	d="
M1126.569336,846.830322 
	C1077.303345,846.997253 1027.651245,847.032043 977.546326,846.971436 
	C979.555786,846.589783 982.017883,846.056641 984.480530,846.053955 
	C1029.575928,846.004822 1074.671265,846.009949 1119.766724,846.048950 
	C1121.905762,846.050781 1124.044434,846.472168 1126.569336,846.830322 
z"/>
<path fill="#64615F" opacity="1.000000" stroke="none" 
	d="
M1176.967773,558.559082 
	C1176.654785,558.118225 1176.041016,557.278320 1176.015015,556.420654 
	C1175.767578,548.249268 1175.619751,540.074829 1175.279297,531.525024 
	C1175.761108,534.353210 1176.810547,537.538330 1176.964600,540.766113 
	C1177.240479,546.547791 1176.977417,552.355164 1176.967773,558.559082 
z"/>
<path fill="#64615F" opacity="1.000000" stroke="none" 
	d="
M1127.769897,562.517456 
	C1126.779907,562.828552 1125.804077,562.828552 1124.636353,562.828552 
	C1127.502686,560.794556 1128.449463,546.733215 1126.564209,536.325989 
	C1125.165527,536.094849 1123.712891,535.854736 1122.260132,535.614685 
	C1122.252441,535.501526 1122.244873,535.388428 1122.237183,535.275269 
	C1123.908081,535.200989 1125.579102,535.126648 1127.631958,535.166138 
	C1128.013916,535.280029 1128.147949,535.083252 1128.028076,535.485718 
	C1127.947754,544.254700 1127.987305,552.621155 1128.026733,560.987610 
	C1127.945801,561.393860 1127.864868,561.800110 1127.769897,562.517456 
z"/>
<path fill="#000000" opacity="1.000000" stroke="none" 
	d="
M1128.269043,560.733276 
	C1127.987305,552.621155 1127.947754,544.254700 1127.932617,535.414551 
	C1128.141846,543.453552 1128.326660,551.966248 1128.269043,560.733276 
z"/>
<path fill="#000000" opacity="1.000000" stroke="none" 
	d="
M505.094482,596.863525 
	C505.036163,587.916687 504.989075,578.966736 505.120789,569.665894 
	C505.299622,569.315063 505.328247,569.321960 505.320831,569.775879 
	C505.250885,579.102112 505.188385,587.974365 505.125854,596.846680 
	C505.125854,596.846680 505.105774,596.860352 505.094482,596.863525 
z"/>
<path fill="#000000" opacity="1.000000" stroke="none" 
	d="
M959.866760,847.030273 
	C959.972351,846.950562 959.499939,846.994934 959.263672,846.973083 
	C959.240173,847.146729 959.484741,847.199707 959.866760,847.030273 
z"/>
<path fill="#000000" opacity="1.000000" stroke="none" 
	d="
M967.863464,847.023926 
	C967.967651,846.943359 967.499390,846.987427 967.265259,846.965454 
	C967.241028,847.141418 967.483765,847.195129 967.863464,847.023926 
z"/>
<path fill="#000000" opacity="1.000000" stroke="none" 
	d="
M972.863831,847.026428 
	C972.967957,846.945923 972.500000,846.989929 972.265991,846.967896 
	C972.241699,847.143799 972.484253,847.197449 972.863831,847.026428 
z"/>
<path fill="#1A1714" opacity="1.000000" stroke="none" 
	d="
M625.985962,656.985657 
	C625.977600,664.350464 625.977600,671.723206 625.977600,679.095886 
	C625.534180,679.087646 625.090820,679.079468 624.647400,679.071228 
	C624.990662,671.968018 625.333862,664.864868 625.843811,657.382385 
	C626.010498,657.003113 625.994263,656.993530 625.985962,656.985657 
z"/>
<path fill="#64615F" opacity="1.000000" stroke="none" 
	d="
M505.338806,596.503906 
	C505.188385,587.974365 505.250885,579.102112 505.333740,569.783569 
	C505.419922,578.278564 505.485840,587.219788 505.338806,596.503906 
z"/>
<path fill="#1A1714" opacity="1.000000" stroke="none" 
	d="
M1099.954468,559.634827 
	C1099.375610,554.855225 1098.868530,549.851440 1098.361572,544.847717 
	C1098.916504,544.820312 1099.471436,544.792908 1100.026367,544.765503 
	C1100.026367,549.647217 1100.026367,554.528992 1099.954468,559.634827 
z"/>
<path fill="#1A1714" opacity="1.000000" stroke="none" 
	d="
M1099.917847,564.913330 
	C1101.896362,564.369263 1103.997925,563.980164 1106.099609,563.591064 
	C1106.173706,564.061401 1106.247803,564.531677 1106.322021,565.002014 
	C1104.564453,565.123291 1102.807007,565.244629 1100.668335,565.372192 
	C1100.287109,565.378418 1100.041016,565.068237 1099.917847,564.913330 
z"/>
</svg>